<?xml version="1.0" standalone="no"?><!DOCTYPE svg PUBLIC "-//W3C//DTD SVG 1.1//EN" "http://www.w3.org/Graphics/SVG/1.1/DTD/svg11.dtd"><svg t="1545357705966" class="icon" style="" viewBox="0 0 1024 1024" version="1.1" xmlns="http://www.w3.org/2000/svg" p-id="7753" xmlns:xlink="http://www.w3.org/1999/xlink" width="16" height="16"><defs><style type="text/css"></style></defs><path d="M832.655556 68.60700933h-609.542571c-42.079374 0-76.19231 36.44812-76.192309 81.410148v732.701565c0 44.961004 34.112935 81.410148 76.191286 81.410148h609.54257c42.079374 0 76.19231-36.44812 76.19231-81.410148V150.01715733c0.001023-44.956911-34.112935-81.410148-76.191286-81.410148z m30.178323 789.940197c0 29.630854-22.559808 53.734832-50.290383 53.734832H243.219929c-27.729551 0-50.290383-24.105001-50.290383-53.734832v-684.356486c0-29.628808 22.559808-53.734832 50.290383-53.734832h569.325613c27.731598 0 50.290383 24.105001 50.290383 53.734832v684.355463l-0.002046 0.001023z" fill="" p-id="7754"></path><path d="M771.918239 323.22912833c0 9.882068-5.498224 17.892509-12.279674 17.892509h-322.341452c-6.78145 0-12.279674-8.011464-12.279675-17.892509v-16.401552c0-9.882068 5.498224-17.892509 12.279675-17.892509h322.341452c6.78145 0 12.279674 8.011464 12.279674 17.892509v16.401552z" fill="" p-id="7755"></path><path d="M308.292993 314.17389133m-30.100551 0a30.100552 30.100552 0 1 0 60.201103 0 30.100552 30.100552 0 1 0-60.201103 0Z" fill="" p-id="7756"></path><path d="M771.918239 517.39226933c0 9.882068-5.498224 17.892509-12.279674 17.892509h-322.341452c-6.78145 0-12.279674-8.011464-12.279675-17.892509v-16.401552c0-9.882068 5.498224-17.892509 12.279675-17.892509h322.341452c6.78145 0 12.279674 8.011464 12.279674 17.892509v16.401552z" fill="" p-id="7757"></path><path d="M308.292993 508.33600933m-30.100551 0a30.100552 30.100552 0 1 0 60.201103 0 30.100552 30.100552 0 1 0-60.201103 0Z" fill="" p-id="7758"></path><path d="M771.918239 711.55438733c0 9.882068-5.498224 17.892509-12.279674 17.892509h-322.341452c-6.78145 0-12.279674-8.011464-12.279675-17.892509v-16.402575c0-9.882068 5.498224-17.892509 12.279675-17.892509h322.341452c6.78145 0 12.279674 8.011464 12.279674 17.892509v16.402575z" fill="" p-id="7759"></path><path d="M308.292993 702.49915133m-30.100551 0a30.100552 30.100552 0 1 0 60.201103 0 30.100552 30.100552 0 1 0-60.201103 0Z" fill="" p-id="7760"></path></svg>