<?xml version="1.0" standalone="no"?><!DOCTYPE svg PUBLIC "-//W3C//DTD SVG 1.1//EN" "http://www.w3.org/Graphics/SVG/1.1/DTD/svg11.dtd"><svg t="1545357522006" class="icon" style="" viewBox="0 0 1024 1024" version="1.1" xmlns="http://www.w3.org/2000/svg" p-id="7383" xmlns:xlink="http://www.w3.org/1999/xlink" width="16" height="16"><defs><style type="text/css"></style></defs><path d="M826.65472 929.48555852h-628.05333333c-52.82929778 0-96.05575111-43.22645333-96.05575112-96.05575111l-1.03765333-624.33962666c0-52.82929778 43.22645333-96.05575111 96.05575111-96.05575112h194.86037334c66.03662222 18.01329778 64.53475555 51.70062222 96.05575111 96.05575112l30.01912889 48.02332443h308.14663111c52.82929778 0 96.05575111 43.22645333 96.05575111 96.05575112v480.26055111c0 52.82929778-43.22645333 96.05575111-96.04664889 96.05575111z" fill="#EECA66" p-id="7384"></path><path d="M945.42051555 415.41025185H78.57948445c-33.14119111 0-52.63815111 25.34968889-46.79452445 56.54300445l76.03996445 400.9984c5.85272889 31.19331555 37.04604445 56.54300445 70.18723555 56.54300445h667.96657778c33.14119111 0 64.34360889-25.34968889 70.18723555-56.54300445l76.03996445-400.9984c5.85272889-31.19331555-13.64423111-56.54300445-46.78542223-56.54300445z" fill="#FFD659" p-id="7385"></path></svg>