<?xml version="1.0" standalone="no"?><!DOCTYPE svg PUBLIC "-//W3C//DTD SVG 1.1//EN" "http://www.w3.org/Graphics/SVG/1.1/DTD/svg11.dtd"><svg t="1545357584376" class="icon" style="" viewBox="0 0 1204 1024" version="1.1" xmlns="http://www.w3.org/2000/svg" p-id="7643" xmlns:xlink="http://www.w3.org/1999/xlink" width="18" height="16"><defs><style type="text/css"></style></defs><path d="M576.19107125 186.29138375h314.07679594c25.59176906 0 46.52728313 20.93551312 46.52728218 46.52728219v58.15910343c0 25.59176906-20.93551312 46.52728313-46.52728218 46.52728313H576.19107125c-25.59176906 0-46.52728313-20.93551312-46.52728312-46.52728313v-58.15910343c-0.00881906-25.59176906 20.93551312-46.52728313 46.52728312-46.52728219z" fill="#EECA66" p-id="7644"></path><path d="M971.6994303 907.50835906H227.20999438c-51.18353812 0-93.06338437-41.87984531-93.06338439-93.06338343V209.55502438c0-51.18353812 41.87984531-93.06338437 93.06338438-93.06338344h267.54951282c63.97942313 17.45214 51.18353812 50.01947438 93.06338437 93.06338343l29.08396125 46.52728314h354.79257752c51.18353812 0 93.06338437 41.87984531 93.06338436 93.06338436v465.29928375c-0.00881906 51.18353812-41.88866437 93.06338437-93.06338436 93.06338344z" fill="#FFD659" p-id="7645"></path></svg>