<?xml version="1.0" standalone="no"?><!DOCTYPE svg PUBLIC "-//W3C//DTD SVG 1.1//EN" "http://www.w3.org/Graphics/SVG/1.1/DTD/svg11.dtd"><svg t="1547018323597" class="icon" style="" viewBox="0 0 1024 1024" version="1.1" xmlns="http://www.w3.org/2000/svg" p-id="8546" xmlns:xlink="http://www.w3.org/1999/xlink" width="12" height="12"><defs><style type="text/css"></style></defs><path d="M636.8274126338958 345.4633222293854l-125.09340940475467 125.09182814598086-125.10763764381412-125.09182814598086-41.689108142852774 41.723888883590696 125.08076165199282 125.08076165199282L344.93725744247433 637.3495246601105l41.7230986404419 41.7246791267395 125.08155266761779-125.08155189514159 125.08155189514159 125.08550465583804 41.7246791267395-41.72863188743591-125.0894566440582-125.07364714622496 125.09340940475467-125.08866640090945z" fill="#FFFFFF" p-id="8547"></path><path d="M511.74190875053404 167.1026487255096c-190.62733672142028 0-345.165323266983 154.53798654556275-345.16532403945916 345.16532403945916 0 190.63128870964047 154.53877756118774 345.1692760276795 345.16532403945916 345.1692760276795 190.63128870964047 0 345.1692760276795-154.53877756118774 345.1692760276795-345.1692760276795 0-190.62733672142028-154.53798654556275-345.165323266983-345.1692760276795-345.16532403945916zM678.5481397724152 637.3495246601105l-41.7246791267395 41.7278416442871-125.08155189514159-125.08550465583804-125.08155266761779 125.0823421382904-41.7230986404419-41.7246791267395 125.08076165199282-125.08155189514159-125.08076165199282-125.08076165199282 41.689108142852774-41.723888883590696 125.10763764381412 125.09261838912964 125.09340940475467-125.09261838912964 41.7246798992157 41.723888883590696-125.09340940475467 125.08866640090945L678.5481397724152 637.3495246601105z" fill="#F46861" p-id="8548"></path></svg>